<svg xmlns="http://www.w3.org/2000/svg"><symbol viewBox="0 0 22.5 21.5" id="mail">
<g id="Iconly/Regular/Outline/Message">
<g id="Message">
<path id="Fill 1" fill-rule="evenodd" clip-rule="evenodd" d="M11.777 13.4649C11.108 13.4649 10.441 13.2439 9.88298 12.8019L5.39798 9.18587C5.07498 8.92587 5.02498 8.45287 5.28398 8.13087C5.54498 7.80987 6.01698 7.75887 6.33898 8.01787L10.82 11.6299C11.383 12.0759 12.176 12.0759 12.743 11.6259L17.179 8.01987C17.501 7.75687 17.973 7.80687 18.235 8.12887C18.496 8.44987 18.447 8.92187 18.126 9.18387L13.682 12.7959C13.12 13.2419 12.448 13.4649 11.777 13.4649Z" fill="black"/>
<g id="Group 5">
<mask id="mask0_33437_4892" style="" maskUnits="userSpaceOnUse" x="1" y="2" width="22" height="20">
<path id="Clip 4" fill-rule="evenodd" clip-rule="evenodd" d="M1 2.00012H22.4999V21.5001H1V2.00012Z" fill="white"/>
</mask>
<g mask="url(#mask0_33437_4892)">
<path id="Fill 3" fill-rule="evenodd" clip-rule="evenodd" d="M6.839 20.0001H16.659C16.661 19.9981 16.669 20.0001 16.675 20.0001C17.816 20.0001 18.828 19.5921 19.604 18.8171C20.505 17.9201 21 16.6311 21 15.1881V8.32012C21 5.52712 19.174 3.50012 16.659 3.50012H6.841C4.326 3.50012 2.5 5.52712 2.5 8.32012V15.1881C2.5 16.6311 2.996 17.9201 3.896 18.8171C4.672 19.5921 5.685 20.0001 6.825 20.0001H6.839ZM6.822 21.5001C5.279 21.5001 3.901 20.9401 2.837 19.8801C1.652 18.6981 1 17.0321 1 15.1881V8.32012C1 4.71712 3.511 2.00012 6.841 2.00012H16.659C19.989 2.00012 22.5 4.71712 22.5 8.32012V15.1881C22.5 17.0321 21.848 18.6981 20.663 19.8801C19.6 20.9391 18.221 21.5001 16.675 21.5001H16.659H6.841H6.822Z" fill="black"/>
</g>
</g>
</g>
</g>
</symbol><symbol viewBox="0 0 22.89387 22.508741" id="phone">
<g id="Iconly/Regular/Outline/Calling">
<g id="Calling">
<g id="Group 3">
<mask id="mask0_33437_4674" style="" maskUnits="userSpaceOnUse" x="14" y="2" width="9" height="9">
<path id="Clip 2" fill-rule="evenodd" clip-rule="evenodd" d="M14.354 2.00037H22.893V10.5332H14.354V2.00037Z" fill="white"/>
</mask>
<g mask="url(#mask0_33437_4674)">
<path id="Fill 1" fill-rule="evenodd" clip-rule="evenodd" d="M22.1427 10.5332C21.7657 10.5332 21.4417 10.2502 21.3987 9.86718C21.0197 6.49118 18.3977 3.87118 15.0207 3.49618C14.6097 3.45018 14.3127 3.08018 14.3587 2.66818C14.4037 2.25718 14.7707 1.95418 15.1867 2.00618C19.2647 2.45918 22.4317 5.62218 22.8887 9.69918C22.9347 10.1112 22.6387 10.4822 22.2277 10.5282C22.1997 10.5312 22.1707 10.5332 22.1427 10.5332Z" fill="black"/>
</g>
</g>
<path id="Fill 4" fill-rule="evenodd" clip-rule="evenodd" d="M18.6026 10.544C18.2506 10.544 17.9376 10.296 17.8676 9.93803C17.5796 8.45803 16.4386 7.31703 14.9606 7.03003C14.5536 6.95103 14.2886 6.55803 14.3676 6.15103C14.4466 5.74403 14.8466 5.47803 15.2466 5.55803C17.3276 5.96203 18.9346 7.56803 19.3396 9.65003C19.4186 10.058 19.1536 10.451 18.7476 10.53C18.6986 10.539 18.6506 10.544 18.6026 10.544Z" fill="black"/>
</g>
<path id="Stroke 5" fill-rule="evenodd" clip-rule="evenodd" d="M3.28872 4.08797L3.36127 4.01216C5.28869 2.08456 6.54385 1.57363 7.88307 2.34374C8.2683 2.56527 8.62945 2.87535 9.12054 3.37413L10.6269 4.93616C11.4589 5.84405 11.6481 6.7149 11.3772 7.73477L11.3398 7.86979L11.2984 8.00404L11.097 8.59487C10.666 9.91984 10.846 10.6674 12.3795 12.2005C13.9742 13.7948 14.7186 13.9252 16.1457 13.4265L16.4001 13.3381L16.7077 13.2382L16.8423 13.2008C17.9263 12.9116 18.842 13.1424 19.8132 14.1129L21.0269 15.2853L21.3842 15.6367C21.7803 16.0407 22.0421 16.3607 22.2355 16.699C23.0008 18.0378 22.4893 19.2922 20.5063 21.2678L20.3177 21.459C20.0216 21.7443 19.745 21.9488 19.3386 22.1417C18.6565 22.4656 17.8506 22.5877 16.9142 22.4575C14.6067 22.1366 11.6802 20.3159 7.97188 16.6086C7.67002 16.3068 7.3809 16.0108 7.10425 15.7206L6.56748 15.1477C1.53762 9.68297 1.09389 6.326 3.15518 4.22063L3.28872 4.08797ZM7.90641 4.28105C7.58062 3.95986 7.34396 3.76406 7.13532 3.64408C6.67379 3.37868 6.1755 3.49087 5.25329 4.2846L4.96353 4.54347C4.91299 4.59012 4.86129 4.63855 4.80838 4.68881L4.47611 5.01243L4.44617 5.04984L4.22091 5.27615C3.67656 5.83216 3.41871 6.51076 3.6409 7.67779C4.00551 9.59281 5.67442 12.1907 9.0324 15.5478C12.5313 19.0458 15.1972 20.7042 17.1208 20.9718C18.2422 21.1277 18.8142 20.8561 19.3975 20.2585L19.8424 19.8096C20.051 19.5913 20.2292 19.3934 20.3797 19.2127L20.585 18.954C21.1097 18.2552 21.1576 17.8359 20.9332 17.4434C20.8479 17.294 20.7237 17.1303 20.5429 16.9302L20.2977 16.6712L20.1525 16.5259L18.6213 15.0473C18.1096 14.5754 17.7599 14.5085 17.229 14.6501L17.0757 14.6942L16.4414 14.9096C14.6013 15.5038 13.2738 15.2157 11.3189 13.2613C9.29429 11.2372 9.05685 9.88549 9.73522 7.9393L9.77874 7.81423L9.89908 7.45166L9.95823 7.22055C10.0631 6.71759 9.94337 6.3669 9.40269 5.82613C9.38043 5.80387 9.35555 5.77878 9.32847 5.75132L7.90641 4.28105Z" fill="black"/>
</g>
</symbol><symbol viewBox="0 0 20.5 21.5" id="location">
<g id="Iconly/Regular/Outline/Location">
<g id="Location">
<path id="Fill 1" fill-rule="evenodd" clip-rule="evenodd" d="M12.2505 8.50012C11.2855 8.50012 10.5005 9.28512 10.5005 10.2511C10.5005 11.2161 11.2855 12.0001 12.2505 12.0001C13.2155 12.0001 14.0005 11.2161 14.0005 10.2511C14.0005 9.28512 13.2155 8.50012 12.2505 8.50012ZM12.2505 13.5001C10.4585 13.5001 9.00049 12.0431 9.00049 10.2511C9.00049 8.45812 10.4585 7.00012 12.2505 7.00012C14.0425 7.00012 15.5005 8.45812 15.5005 10.2511C15.5005 12.0431 14.0425 13.5001 12.2505 13.5001Z" fill="black"/>
<g id="Group 5">
<mask id="mask0_33437_4981" style="" maskUnits="userSpaceOnUse" x="4" y="2" width="17" height="20">
<path id="Clip 4" fill-rule="evenodd" clip-rule="evenodd" d="M4 2.00012H20.4995V21.5001H4V2.00012Z" fill="white"/>
</mask>
<g mask="url(#mask0_33437_4981)">
<path id="Fill 3" fill-rule="evenodd" clip-rule="evenodd" d="M12.2495 3.50012C8.52751 3.50012 5.49951 6.55712 5.49951 10.3131C5.49951 15.0921 11.1235 19.7481 12.2495 19.9961C13.3755 19.7471 18.9995 15.0911 18.9995 10.3131C18.9995 6.55712 15.9715 3.50012 12.2495 3.50012ZM12.2495 21.5001C10.4555 21.5001 3.99951 15.9481 3.99951 10.3131C3.99951 5.72912 7.70051 2.00012 12.2495 2.00012C16.7985 2.00012 20.4995 5.72912 20.4995 10.3131C20.4995 15.9481 14.0435 21.5001 12.2495 21.5001Z" fill="black"/>
</g>
</g>
</g>
</g>
</symbol></svg>