<svg xmlns="http://www.w3.org/2000/svg"><defs><style>.icon { display: none; }.icon:target { display: inline; }</style></defs>
<svg viewBox="0 0 22.857332 19"><g id="src-3" class="icon">
<path d="M22.857 2.627C21.9972 3.00201 21.0879 3.25123 20.157 3.367C21.1385 2.78533 21.8726 1.86378 22.22 0.777003C21.3012 1.32172 20.2961 1.70525 19.248 1.911C18.6059 1.224 17.7719 0.746178 16.8545 0.539705C15.937 0.333232 14.9787 0.407671 14.1042 0.753337C13.2297 1.099 12.4795 1.69989 11.9511 2.47781C11.4228 3.25572 11.1409 4.17465 11.142 5.115C11.142 5.487 11.174 5.845 11.251 6.185C7.355 5.995 3.908 4.127 1.592 1.283C1.17309 2.00161 0.951603 2.8182 0.95 3.65C0.95 5.273 1.786 6.712 3.031 7.545C2.28928 7.52515 1.56321 7.32726 0.914 6.968V7.019C0.915316 8.10111 1.28943 9.14971 1.97336 9.98828C2.65729 10.8268 3.60926 11.4041 4.669 11.623C4.26802 11.7289 3.85473 11.7811 3.44 11.778C3.14 11.778 2.837 11.76 2.553 11.698C3.16 13.553 4.883 14.918 6.931 14.962C5.27224 16.2589 3.2266 16.9624 1.121 16.96C0.737 16.96 0.369 16.943 0 16.896C2.1427 18.2772 4.63971 19.008 7.189 19C15.811 19 20.526 11.857 20.526 5.666C20.526 5.459 20.519 5.259 20.509 5.06C21.4331 4.39847 22.2287 3.57398 22.857 2.627Z" fill="#FF5722"/>
</g></svg>
<svg viewBox="0 0 23.000536 19.001875"><g id="src-2" class="icon">
<path d="M9.025 12.522L8.645 17.827C9.189 17.827 9.425 17.595 9.707 17.317L12.259 14.899L17.548 18.739C18.518 19.274 19.201 18.992 19.462 17.854L22.934 1.73C23.243 0.307001 22.417 -0.248999 21.472 0.100001L1.068 7.844C-0.324999 8.38 -0.303999 9.15 0.830001 9.498L6.046 11.107L18.164 3.59C18.734 3.216 19.253 3.423 18.826 3.797L9.025 12.521V12.522Z" fill="#FF5722"/>
</g></svg>
<svg viewBox="0 0 10.142667 20"><g id="src-1" class="icon">
<path d="M6.393 6.875V4.375C6.393 3.685 6.953 3.125 7.643 3.125H8.893V0H6.393C5.39844 0 4.44461 0.395088 3.74135 1.09835C3.03809 1.80161 2.643 2.75544 2.643 3.75V6.875H0.142998V10H2.643V20H6.393V10H8.893L10.143 6.875H6.393Z" fill="#FF5722"/>
</g></svg>

</svg>
