<svg xmlns="http://www.w3.org/2000/svg" width="500" height="500" style="width:100%;height:100%;transform:translate3d(0,0,0);content-visibility:visible" viewBox="0 0 500 500"><defs><filter id="a" width="100%" height="100%" x="0%" y="0%" filterUnits="objectBoundingBox"><feComponentTransfer in="SourceGraphic"><feFuncA tableValues="1.0 0.0" type="table"/></feComponentTransfer></filter><filter id="c" width="100%" height="100%" x="0%" y="0%" filterUnits="objectBoundingBox"><feComponentTransfer in="SourceGraphic"><feFuncA tableValues="1.0 0.0" type="table"/></feComponentTransfer></filter><mask id="g" mask-type="alpha"><g filter="url(#a)"><path fill="#fff" d="M0 0h500v500H0z" opacity="0"/><use xmlns:ns1="http://www.w3.org/1999/xlink" ns1:href="#b"/></g></mask><mask id="f" mask-type="alpha"><g filter="url(#c)"><path fill="#fff" d="M0 0h500v500H0z" opacity="0"/><use xmlns:ns2="http://www.w3.org/1999/xlink" ns2:href="#d"/></g></mask><g id="b" style="display:none"><path/><path fill-opacity="0" stroke-linecap="round" stroke-linejoin="round"/><path fill-opacity="0" stroke-linecap="round" stroke-linejoin="round"/><path/></g><g id="d" style="display:block"><path fill="red" d="M202.16 413.083h95.484m41.989 21.488h-176.5c-7.164 0-12.975-5.811-12.975-12.975V82.376c0-7.165 5.811-12.976 12.975-12.976h176.5c7.164 0 12.975 5.811 12.975 12.975v339.22c0 7.165-5.811 12.976-12.975 12.976zM190.655 71.228h4.13c5.629 0 10.49 6.14 11.733 11.622v-2.302c.877 3.838 4.276 8.808 8.187 8.808H285.1a8.406 8.406 0 0 0 8.187-6.506v-2.302c1.243-5.446 6.104-9.32 11.733-9.32h4.898"/><path fill-opacity="0" stroke="#08A88A" stroke-linecap="round" stroke-linejoin="round" stroke-width="0" d="M202.16 413.083h95.484"/><path fill-opacity="0" stroke="#121331" stroke-linecap="round" stroke-linejoin="round" stroke-width="0" d="M339.633 434.571H163.129c-7.167 0-12.975-5.808-12.975-12.975V82.376c0-7.168 5.808-12.976 12.975-12.976h176.504c7.167 0 12.975 5.808 12.975 12.975v339.22c0 7.168-5.808 12.976-12.975 12.976z"/><path fill="#121331" d="M190.662 71.228h4.134c5.603 0 10.464 6.15 11.725 11.611v-2.284c.881 3.812 4.273 8.794 8.184 8.794H285.1a8.398 8.398 0 0 0 8.184-6.51v-2.284a12.034 12.034 0 0 1 11.725-9.327h4.898"/></g><clipPath id="e"><path d="M0 0h500v500H0z"/></clipPath></defs><g clip-path="url(#e)"><g mask="url(#f)" style="display:block"><path fill="none" stroke="#08A88A" stroke-linecap="round" stroke-linejoin="round" stroke-width="11.513" d="M339.633 434.571H163.129c-7.167 0-12.975-5.808-12.975-12.975V82.376c0-7.168 5.808-12.976 12.975-12.976h176.504c7.167 0 12.975 5.808 12.975 12.975v339.22c0 7.168-5.808 12.976-12.975 12.976z"/><path fill="none" stroke="#08A88A" stroke-linecap="round" stroke-linejoin="round" stroke-width="7.675" d="M233.334 152.606s0 0 0 0c-.171 0-.31-5.746-.31-12.836v-37.658c0-7.09.139-12.836.31-12.836 0 0 0 0 0 0 .172 0 .315 5.746.315 12.836v37.658c0 7.09-.143 12.836-.315 12.836z"/><path fill="#08A88A" d="M233.334 152.606c-.171 0-.31-5.746-.31-12.836v-37.658c0-7.09.139-12.836.31-12.836.172 0 .315 5.746.315 12.836v37.658c0 7.09-.143 12.836-.315 12.836z"/></g><g mask="url(#g)" style="display:none"><path fill="none"/><path fill="none"/><path/></g><g style="display:block"><path fill="none" stroke="#08A88A" stroke-linecap="round" stroke-linejoin="round" stroke-width="11.513" d="M202.16 413.083h95.484"/><path fill="none" stroke="#121331" stroke-linecap="round" stroke-linejoin="round" stroke-width="11.513" d="M339.633 434.571H163.129c-7.167 0-12.975-5.808-12.975-12.975V82.376c0-7.168 5.808-12.976 12.975-12.976h176.504c7.167 0 12.975 5.808 12.975 12.975v339.22c0 7.168-5.808 12.976-12.975 12.976z"/><path fill="#121331" d="M190.662 71.228h4.134c5.603 0 10.464 6.15 11.725 11.611v-2.284c.881 3.812 4.273 8.794 8.184 8.794H285.1a8.398 8.398 0 0 0 8.184-6.51v-2.284a12.034 12.034 0 0 1 11.725-9.327h4.898"/></g><g style="display:none"><path fill="none"/><path fill="none"/><path/></g><g class="com" style="display:none"><path/><path/><path/><path/><path/><path/><path/><path/><path/><path/><path/><path/></g></g></svg>